<svg xmlns="http://www.w3.org/2000/svg" width="1200" height="378" viewBox="0 0 1200 378" role="img" aria-label="Technical stack">
  <rect width="1200" height="378" rx="10" fill="#0D1117" stroke="#30363D"/>
  <text x="48" y="78" font-family="-apple-system, BlinkMacSystemFont, 'Segoe UI', Helvetica, Arial, sans-serif" font-size="13" font-weight="600" letter-spacing="1.4" fill="#F0F6FC">BACKEND</text>
  <rect x="255" y="56" width="2" height="34" rx="1" fill="#3B82F6" opacity="0.55"/>
  <rect x="283" y="56" width="77" height="34" rx="17" fill="#1C2128" stroke="#30363D"/>
  <text x="322" y="78" text-anchor="middle" font-family="-apple-system, BlinkMacSystemFont, 'Segoe UI', Helvetica, Arial, sans-serif" font-size="14" fill="#C9D1D9">Node.js</text>
  <rect x="370" y="56" width="75" height="34" rx="17" fill="#1C2128" stroke="#30363D"/>
  <text x="407" y="78" text-anchor="middle" font-family="-apple-system, BlinkMacSystemFont, 'Segoe UI', Helvetica, Arial, sans-serif" font-size="14" fill="#C9D1D9">NestJS</text>
  <rect x="455" y="56" width="90" height="34" rx="17" fill="#1C2128" stroke="#30363D"/>
  <text x="500" y="78" text-anchor="middle" font-family="-apple-system, BlinkMacSystemFont, 'Segoe UI', Helvetica, Arial, sans-serif" font-size="14" fill="#C9D1D9">AdonisJS</text>
  <rect x="555" y="56" width="83" height="34" rx="17" fill="#1C2128" stroke="#30363D"/>
  <text x="596" y="78" text-anchor="middle" font-family="-apple-system, BlinkMacSystemFont, 'Segoe UI', Helvetica, Arial, sans-serif" font-size="14" fill="#C9D1D9">Express</text>
  <rect x="648" y="56" width="54" height="34" rx="17" fill="#1C2128" stroke="#30363D"/>
  <text x="675" y="78" text-anchor="middle" font-family="-apple-system, BlinkMacSystemFont, 'Segoe UI', Helvetica, Arial, sans-serif" font-size="14" fill="#C9D1D9">PHP</text>
  <rect x="712" y="56" width="80" height="34" rx="17" fill="#1C2128" stroke="#30363D"/>
  <text x="752" y="78" text-anchor="middle" font-family="-apple-system, BlinkMacSystemFont, 'Segoe UI', Helvetica, Arial, sans-serif" font-size="14" fill="#C9D1D9">Laravel</text>
  <rect x="802" y="56" width="72" height="34" rx="17" fill="#1C2128" stroke="#30363D"/>
  <text x="839" y="78" text-anchor="middle" font-family="-apple-system, BlinkMacSystemFont, 'Segoe UI', Helvetica, Arial, sans-serif" font-size="14" fill="#C9D1D9">Python</text>
  <rect x="885" y="56" width="101" height="34" rx="17" fill="#1C2128" stroke="#30363D"/>
  <text x="935" y="78" text-anchor="middle" font-family="-apple-system, BlinkMacSystemFont, 'Segoe UI', Helvetica, Arial, sans-serif" font-size="14" fill="#C9D1D9">TypeScript</text>
  <rect x="996" y="56" width="60" height="34" rx="17" fill="#1C2128" stroke="#30363D"/>
  <text x="1026" y="78" text-anchor="middle" font-family="-apple-system, BlinkMacSystemFont, 'Segoe UI', Helvetica, Arial, sans-serif" font-size="14" fill="#C9D1D9">Java</text>
  <line x1="48" y1="103" x2="1152" y2="103" stroke="#30363D" stroke-opacity="0.7"/>
  <text x="48" y="138" font-family="-apple-system, BlinkMacSystemFont, 'Segoe UI', Helvetica, Arial, sans-serif" font-size="13" font-weight="600" letter-spacing="1.4" fill="#F0F6FC">FRONTEND</text>
  <rect x="255" y="116" width="2" height="34" rx="1" fill="#3B82F6" opacity="0.55"/>
  <rect x="283" y="116" width="65" height="34" rx="17" fill="#1C2128" stroke="#30363D"/>
  <text x="315" y="138" text-anchor="middle" font-family="-apple-system, BlinkMacSystemFont, 'Segoe UI', Helvetica, Arial, sans-serif" font-size="14" fill="#C9D1D9">React</text>
  <rect x="358" y="116" width="74" height="34" rx="17" fill="#1C2128" stroke="#30363D"/>
  <text x="395" y="138" text-anchor="middle" font-family="-apple-system, BlinkMacSystemFont, 'Segoe UI', Helvetica, Arial, sans-serif" font-size="14" fill="#C9D1D9">Next.js</text>
  <rect x="442" y="116" width="69" height="34" rx="17" fill="#1C2128" stroke="#30363D"/>
  <text x="477" y="138" text-anchor="middle" font-family="-apple-system, BlinkMacSystemFont, 'Segoe UI', Helvetica, Arial, sans-serif" font-size="14" fill="#C9D1D9">Vue.js</text>
  <rect x="521" y="116" width="111" height="34" rx="17" fill="#1C2128" stroke="#30363D"/>
  <text x="577" y="138" text-anchor="middle" font-family="-apple-system, BlinkMacSystemFont, 'Segoe UI', Helvetica, Arial, sans-serif" font-size="14" fill="#C9D1D9">React Native</text>
  <rect x="642" y="116" width="93" height="34" rx="17" fill="#1C2128" stroke="#30363D"/>
  <text x="688" y="138" text-anchor="middle" font-family="-apple-system, BlinkMacSystemFont, 'Segoe UI', Helvetica, Arial, sans-serif" font-size="14" fill="#C9D1D9">Bootstrap</text>
  <line x1="48" y1="163" x2="1152" y2="163" stroke="#30363D" stroke-opacity="0.7"/>
  <text x="48" y="198" font-family="-apple-system, BlinkMacSystemFont, 'Segoe UI', Helvetica, Arial, sans-serif" font-size="13" font-weight="600" letter-spacing="1.4" fill="#F0F6FC">DATA</text>
  <rect x="255" y="176" width="2" height="34" rx="1" fill="#3B82F6" opacity="0.55"/>
  <rect x="283" y="176" width="75" height="34" rx="17" fill="#1C2128" stroke="#30363D"/>
  <text x="321" y="198" text-anchor="middle" font-family="-apple-system, BlinkMacSystemFont, 'Segoe UI', Helvetica, Arial, sans-serif" font-size="14" fill="#C9D1D9">MySQL</text>
  <rect x="368" y="176" width="107" height="34" rx="17" fill="#1C2128" stroke="#30363D"/>
  <text x="421" y="198" text-anchor="middle" font-family="-apple-system, BlinkMacSystemFont, 'Segoe UI', Helvetica, Arial, sans-serif" font-size="14" fill="#C9D1D9">PostgreSQL</text>
  <rect x="485" y="176" width="89" height="34" rx="17" fill="#1C2128" stroke="#30363D"/>
  <text x="529" y="198" text-anchor="middle" font-family="-apple-system, BlinkMacSystemFont, 'Segoe UI', Helvetica, Arial, sans-serif" font-size="14" fill="#C9D1D9">MongoDB</text>
  <rect x="584" y="176" width="88" height="34" rx="17" fill="#1C2128" stroke="#30363D"/>
  <text x="628" y="198" text-anchor="middle" font-family="-apple-system, BlinkMacSystemFont, 'Segoe UI', Helvetica, Arial, sans-serif" font-size="14" fill="#C9D1D9">Firebase</text>
  <line x1="48" y1="223" x2="1152" y2="223" stroke="#30363D" stroke-opacity="0.7"/>
  <text x="48" y="258" font-family="-apple-system, BlinkMacSystemFont, 'Segoe UI', Helvetica, Arial, sans-serif" font-size="13" font-weight="600" letter-spacing="1.4" fill="#F0F6FC">CLOUD &amp; DEVOPS</text>
  <rect x="255" y="236" width="2" height="34" rx="1" fill="#3B82F6" opacity="0.55"/>
  <rect x="283" y="236" width="125" height="34" rx="17" fill="#1C2128" stroke="#30363D"/>
  <text x="345" y="258" text-anchor="middle" font-family="-apple-system, BlinkMacSystemFont, 'Segoe UI', Helvetica, Arial, sans-serif" font-size="14" fill="#C9D1D9">AWS EC2 / S3</text>
  <rect x="418" y="236" width="80" height="34" rx="17" fill="#1C2128" stroke="#30363D"/>
  <text x="458" y="258" text-anchor="middle" font-family="-apple-system, BlinkMacSystemFont, 'Segoe UI', Helvetica, Arial, sans-serif" font-size="14" fill="#C9D1D9">Jenkins</text>
  <rect x="508" y="236" width="124" height="34" rx="17" fill="#1C2128" stroke="#30363D"/>
  <text x="570" y="258" text-anchor="middle" font-family="-apple-system, BlinkMacSystemFont, 'Segoe UI', Helvetica, Arial, sans-serif" font-size="14" fill="#C9D1D9">GitHub Actions</text>
  <rect x="642" y="236" width="90" height="34" rx="17" fill="#1C2128" stroke="#30363D"/>
  <text x="687" y="258" text-anchor="middle" font-family="-apple-system, BlinkMacSystemFont, 'Segoe UI', Helvetica, Arial, sans-serif" font-size="14" fill="#C9D1D9">DeployHQ</text>
  <rect x="742" y="236" width="46" height="34" rx="17" fill="#1C2128" stroke="#30363D"/>
  <text x="765" y="258" text-anchor="middle" font-family="-apple-system, BlinkMacSystemFont, 'Segoe UI', Helvetica, Arial, sans-serif" font-size="14" fill="#C9D1D9">Git</text>
  <line x1="48" y1="283" x2="1152" y2="283" stroke="#30363D" stroke-opacity="0.7"/>
  <text x="48" y="318" font-family="-apple-system, BlinkMacSystemFont, 'Segoe UI', Helvetica, Arial, sans-serif" font-size="13" font-weight="600" letter-spacing="1.4" fill="#F0F6FC">AI &amp; INTEGRATIONS</text>
  <rect x="255" y="296" width="2" height="34" rx="1" fill="#3B82F6" opacity="0.55"/>
  <rect x="283" y="296" width="109" height="34" rx="17" fill="#1C2128" stroke="#30363D"/>
  <text x="337" y="318" text-anchor="middle" font-family="-apple-system, BlinkMacSystemFont, 'Segoe UI', Helvetica, Arial, sans-serif" font-size="14" fill="#C9D1D9">OpenAI API</text>
  <rect x="402" y="296" width="127" height="34" rx="17" fill="#1C2128" stroke="#30363D"/>
  <text x="465" y="318" text-anchor="middle" font-family="-apple-system, BlinkMacSystemFont, 'Segoe UI', Helvetica, Arial, sans-serif" font-size="14" fill="#C9D1D9">Tesseract OCR</text>
  <rect x="538" y="296" width="162" height="34" rx="17" fill="#1C2128" stroke="#30363D"/>
  <text x="620" y="318" text-anchor="middle" font-family="-apple-system, BlinkMacSystemFont, 'Segoe UI', Helvetica, Arial, sans-serif" font-size="14" fill="#C9D1D9">Prompt Engineering</text>
  <rect x="711" y="296" width="107" height="34" rx="17" fill="#1C2128" stroke="#30363D"/>
  <text x="764" y="318" text-anchor="middle" font-family="-apple-system, BlinkMacSystemFont, 'Segoe UI', Helvetica, Arial, sans-serif" font-size="14" fill="#C9D1D9">NLP Search</text>
  <rect x="827" y="296" width="69" height="34" rx="17" fill="#1C2128" stroke="#30363D"/>
  <text x="862" y="318" text-anchor="middle" font-family="-apple-system, BlinkMacSystemFont, 'Segoe UI', Helvetica, Arial, sans-serif" font-size="14" fill="#C9D1D9">Stripe</text>
  <rect x="907" y="296" width="74" height="34" rx="17" fill="#1C2128" stroke="#30363D"/>
  <text x="943" y="318" text-anchor="middle" font-family="-apple-system, BlinkMacSystemFont, 'Segoe UI', Helvetica, Arial, sans-serif" font-size="14" fill="#C9D1D9">E-Sign</text>
  <rect x="990" y="296" width="59" height="34" rx="17" fill="#1C2128" stroke="#30363D"/>
  <text x="1019" y="318" text-anchor="middle" font-family="-apple-system, BlinkMacSystemFont, 'Segoe UI', Helvetica, Arial, sans-serif" font-size="14" fill="#C9D1D9">FCM</text>
</svg>
